# xmcd
#
# Track frame offsets: 
#        180
#        13225
#        28398
#        41150
#        57497
#        68391
#        79430
#        93177
#        105114
#        116827
#        129614
#        142093
#        157348
#        172474
#        182963
#        195366
#        207017
#        221273
#        232616
#        255877
#
# Disc length: 3568 seconds
#
# Revision: 2
# Processed by: cddbd v1.5.2PL0 Copyright (c) Steve Scherf et al.
# Submitted via: ExactAudioCopyFreeDBPlugin 1.0
#
DISCID=1d0dee14
DTITLE=Various Artist - Golden Greats Of Blues [CD1)
DYEAR=2006
DGENRE=Blues
TTITLE0=Ray Charles - Ray's Blues
TTITLE1=Big Joe Turner - Chains Of Love
TTITLE2=John Lee Hooker - Everybody's Blues
TTITLE3=B. B. King - The Other Night Blues
TTITLE4=John Lee Hooker - Send Me Your Pillow
TTITLE5=Ray Charles - A Sentimental Blues
TTITLE6=Joe Williams And Count Basie - Always On The Blue Side
TTITLE7=Sonny Boy Williamson - Don't Start Me To Talkin'
TTITLE8=B. B. King - Take A Swing With Me
TTITLE9=Ray Charles - Greenbacks
TTITLE10=Muddy Waters - I'm Your Hoochie Coochie Man
TTITLE11=Ray Charles - Sinner's Prayer
TTITLE12=Muddy Waters - Standing Around Crying
TTITLE13=John Lee Hooker - Keep Your Hands To Yourself
TTITLE14=Joe Williams And Count Basie - It's Raining Again
TTITLE15=Ray Charles - How Long, How Long Blues
TTITLE16=John Lee Hooker - I Need Love So Bad
TTITLE17=Big Joe Turner - Lucille
TTITLE18=John Lee Hooker - Roll And Rumble
TTITLE19=Ray Charles - Nobody Cares
EXTD=
EXTT0=
EXTT1=
EXTT2=
EXTT3=
EXTT4=
EXTT5=
EXTT6=
EXTT7=
EXTT8=
EXTT9=
EXTT10=
EXTT11=
EXTT12=
EXTT13=
EXTT14=
EXTT15=
EXTT16=
EXTT17=
EXTT18=
EXTT19=
PLAYORDER=
